<svg xmlns="http://www.w3.org/2000/svg" width="32" height="32" viewBox="0 0 32 32"><path d="M-171.5-276.5c0-14.359-11.641-26-26-26s-26 11.641-26 26c0 6.584 2.452 12.592 6.487 17.173-.481 1.416-.486 2.633-.486 2.633s9.92 8.194 20.261 8.194c9.634 0 19.739-8.196 19.739-8.196.008-1.007-.143-1.906-.425-2.701 3.996-4.573 6.424-10.553 6.424-17.103z" fill="none"/><path fill-rule="evenodd" clip-rule="evenodd" fill="#aaa" d="M23.752 15.742l-13.738-13.742-1.766 1.767 12.231 12.233-12.231 12.234 1.766 1.766 13.738-13.741-.258-.259z"/></svg>