<svg xmlns="http://www.w3.org/2000/svg" xmlns:xlink="http://www.w3.org/1999/xlink" width="32" height="452" viewBox="0 0 32 452"><svg width="32" height="32" viewBox="0 0 32 32"><path fill="#00ae66" d="M16 13.667a2.333 2.333 0 1 0 0 4.666 2.333 2.333 0 0 0 0-4.666zm5.833 0a2.333 2.333 0 1 0 0 4.666 2.333 2.333 0 0 0 0-4.666zm-11.666 0a2.333 2.333 0 1 0 0 4.666 2.333 2.333 0 0 0 0-4.666z"/><path fill="#00ae66" d="M16 4c6.617 0 12 5.383 12 12 0 1.99-.475 3.888-1.411 5.641l-.349.653.161.723.965 4.345-5.065-1.126-.654.35A11.851 11.851 0 0 1 16 28C9.383 28 4 22.617 4 16S9.383 4 16 4zm0-2C8.268 2 2 8.268 2 16s6.268 14 14 14a13.93 13.93 0 0 0 6.591-1.65L30 29.996l-1.647-7.413A13.933 13.933 0 0 0 29.999 16c0-7.732-6.267-14-13.999-14z"/></svg><svg width="32" height="32" viewBox="0 0 32 32" y="42"><path fill="#999" d="M16 13.667a2.333 2.333 0 1 0 0 4.666 2.333 2.333 0 0 0 0-4.666zm5.833 0a2.333 2.333 0 1 0 0 4.666 2.333 2.333 0 0 0 0-4.666zm-11.666 0a2.333 2.333 0 1 0 0 4.666 2.333 2.333 0 0 0 0-4.666z"/><path fill="#999" d="M16 4c6.617 0 12 5.383 12 12 0 1.99-.475 3.888-1.411 5.641l-.349.653.161.723.965 4.345-5.065-1.126-.654.35A11.851 11.851 0 0 1 16 28C9.383 28 4 22.617 4 16S9.383 4 16 4zm0-2C8.268 2 2 8.268 2 16s6.268 14 14 14a13.93 13.93 0 0 0 6.591-1.65L30 29.996l-1.647-7.413A13.933 13.933 0 0 0 29.999 16c0-7.732-6.267-14-13.999-14z"/></svg><svg width="32" height="32" viewBox="0 0 32 32" y="84"><path fill="#00ae66" d="M16 28.5c-.571 0-1.239-.302-1.468-.72-.796-.687-4.327-4.141-10.512-10.284l-.098-.098C2.353 15.645 1.5 13.611 1.5 11.652c0-2.06.928-4.261 2.422-5.745C5.484 4.354 7.536 3.5 9.7 3.5s4.215.854 5.777 2.407c.179.177.36.357.523.542.163-.185.343-.363.52-.539 1.565-1.555 3.617-2.41 5.78-2.41 2.164 0 4.216.854 5.777 2.407C29.64 7.458 30.5 9.499 30.5 11.652s-.86 4.193-2.423 5.747c-6.258 6.219-9.809 9.692-10.609 10.382-.23.417-.897.719-1.468.719zm-.558-1.181c.108.076.335.181.558.181.218 0 .439-.101.55-.176v-.116l.225-.147c.367-.268 4.412-4.225 10.551-10.324 1.419-1.411 2.175-3.2 2.175-5.084s-.756-3.673-2.128-5.036C26 5.251 24.198 4.5 22.3 4.5c-1.897 0-3.699.751-5.072 2.116-.317.316-.643.64-.781.914L16 8.421l-.447-.892c-.138-.275-.462-.598-.777-.91C13.399 5.251 11.598 4.5 9.7 4.5S6 5.251 4.627 6.616C3.335 7.9 2.5 9.876 2.5 11.652c0 1.713.763 3.51 2.147 5.059l.078.075c6.206 6.164 10.133 10.007 10.506 10.278l.206.149.005.106z"/><path fill="#00ae66" d="M22.3 6c1.499 0 2.925.597 4.015 1.68C27.402 8.759 28 10.17 28 11.652s-.598 2.893-1.685 3.973l-.043.042C19.81 22.088 16.784 25.032 16 25.746c-.777-.709-3.809-3.656-10.272-10.077C4.613 14.406 4 12.981 4 11.652c0-1.396.661-2.956 1.685-3.973C6.775 6.596 8.201 6 9.7 6s2.925.597 4.016 1.68c.176.175.442.44.497.523a2.003 2.003 0 0 0 1.78 1.115c.756 0 1.44-.413 1.78-1.089.069-.109.335-.373.512-.549C19.375 6.596 20.801 6 22.3 6zm0-2c-2.1 0-4.025.87-5.425 2.261-.35.348-.7.695-.875 1.044-.175-.348-.525-.696-.875-1.044C13.725 4.87 11.8 4 9.7 4s-4.025.87-5.425 2.261S2 9.739 2 11.652s.875 3.826 2.275 5.392C5.5 18.261 14.425 27.131 14.95 27.478c0 .174.525.522 1.05.522s1.05-.348 1.05-.522c.525-.348 9.45-9.217 10.675-10.434 1.4-1.392 2.275-3.305 2.275-5.392s-.875-4-2.275-5.391S24.4 4 22.3 4z"/></svg><svg width="32" height="32" viewBox="0 0 32 32" y="126"><path fill="#ddd" d="M27.81 11.941l-5.339-.251s-.215-1.305.314-4.907c.581-3.952-4.624-5.828-6.461 0-1.021 3.242-2.65 4.459-3.585 4.907H2.012L2 28.912l12.025-.008c.085-.007.146-.015.146-.015h12.921s2.501-12.522 2.871-14.737-2.153-2.211-2.153-2.211z"/><path fill="#fff" d="M8.473 11.689h2.154v17.228H8.473V11.689z"/></svg><svg width="32" height="32" viewBox="0 0 32 32" y="168"><path fill="#00ae66" d="M27.667 27.667H4.333V4.333h14V2H2v28h28V13.667h-2.333z"/><path fill="#00ae66" d="M28.174 2.038l1.65 1.65L14.15 19.362l-1.65-1.65L28.174 2.038z"/></svg><svg width="32" height="32" viewBox="0 0 32 32" y="210"><path fill="#999" d="M13.846 9.538c.595 0 1.077.362 1.077.808v8.077c0 .446-.482.807-1.077.807s-1.077-.362-1.077-.807v-8.077c0-.446.482-.808 1.077-.808z"/><path fill="#999" d="M22.462 18.154c0 .594-.362 1.076-.808 1.076h-8.077c-.446 0-.808-.482-.808-1.076s.362-1.077.808-1.077h8.077c.446 0 .808.482.808 1.077z"/><path fill="#999" d="M16 4c6.617 0 12 5.383 12 12s-5.383 12-12 12S4 22.617 4 16 9.383 4 16 4zm0-2C8.268 2 2 8.268 2 16s6.268 14 14 14 14-6.268 14-14S23.732 2 16 2z"/></svg><svg width="32" height="32" viewBox="0 0 32 32" y="252"><path fill="#00ae66" d="M16 28c-.525 0-1.05-.348-1.05-.522-.525-.348-9.45-9.217-10.675-10.435C2.875 15.478 2 13.565 2 11.652s.875-4 2.275-5.391S7.6 4 9.7 4s4.025.87 5.425 2.261c.35.348.7.696.875 1.044.175-.348.525-.696.875-1.044C18.275 4.87 20.2 4 22.3 4s4.025.87 5.425 2.261C29.125 7.652 30 9.565 30 11.652s-.875 4-2.275 5.392C26.5 18.261 17.575 27.131 17.05 27.478c0 .174-.525.522-1.05.522z"/></svg><svg width="32" height="32" viewBox="0 0 32 32" y="294"><path fill="#00ae66" d="M27.81 11.941l-5.339-.251s-.215-1.305.314-4.907c.581-3.952-4.624-5.828-6.461 0-1.021 3.242-2.65 4.459-3.585 4.907H2.012L2 28.912l12.025-.008c.085-.007.146-.015.146-.015h12.921s2.501-12.522 2.871-14.737-2.153-2.211-2.153-2.211z"/><path fill="#fff" d="M8.473 11.689h2.154v17.228H8.473V11.689z"/></svg><svg width="32" height="32" viewBox="0 0 32 32" y="336"><g>
	<path fill="none" d="M-171.5-276.5c0-14.359-11.641-26-26-26s-26,11.641-26,26c0,6.584,2.452,12.592,6.487,17.173
		c-0.481,1.416-0.486,2.633-0.486,2.633s9.92,8.194,20.261,8.194c9.634,0,19.739-8.196,19.739-8.196
		c0.008-1.007-0.143-1.906-0.425-2.701C-173.928-263.97-171.5-269.95-171.5-276.5z"/>
</g>
<path fill="#9C9FA1" d="M10.646,11.689H12.8v17.228h-2.154V11.689z"/>
<g>
	<polygon fill="none" points="10.713,28.918 10.591,11.689 2.009,11.689 2,28.912 7.08,28.912 7.08,28.918 	"/>
</g>
<path fill="#9C9FA1" d="M20.045,5.082L20.045,5.082c0.191,0,0.373,0.09,0.514,0.253c0.23,0.266,0.317,0.677,0.247,1.157
	c-0.547,3.722-0.353,5.254-0.309,5.523c0.154,0.931,0.937,1.628,1.879,1.672l5.339,0.251c0.031,0.001,0.035,0.002,0.066,0.002
	c0.054,0.002,0.12,0.011,0.184,0.023c-0.338,1.948-1.847,9.564-2.515,12.925H14.303c-0.114,0-0.226,0.01-0.335,0.029H5.49V13.718
	h7.187c0.287,0,0.571-0.062,0.832-0.181c1.215-0.556,3.443-2.095,4.722-6.153C18.733,5.794,19.503,5.082,20.045,5.082 M20.045,3.082
	c-1.364,0-2.889,1.059-3.721,3.7c-1.045,3.316-2.724,4.513-3.647,4.936H3.49v17.199h10.813v-0.029h12.789
	c0,0,2.501-12.522,2.871-14.737c0.369-2.206-2.133-2.211-2.153-2.211l0,0l-5.339-0.251c0,0-0.215-1.305,0.314-4.907
	C23.102,4.622,21.69,3.082,20.045,3.082L20.045,3.082z"/></svg>
<svg x="0" y="378"
	 width="32" height="32" viewBox="0 0 32 32">
<path fill="#6B7072" d="M15.999,28.701c-0.58,0-1.139-0.183-1.609-0.523h-0.045L14.058,27.9c-3.694-3.612-10.079-10.1-11.341-12.98
	C0.941,10.867,2.579,6.01,6.37,4.092c1.038-0.526,2.144-0.793,3.287-0.793c2.541,0,4.928,1.357,6.342,3.574
	c1.416-2.217,3.803-3.574,6.343-3.574c1.143,0,2.249,0.267,3.288,0.794c3.79,1.917,5.429,6.775,3.652,10.828
	c-1.266,2.887-7.653,9.375-11.348,12.985C17.405,28.419,16.719,28.701,15.999,28.701z M15.14,26.224L15.14,26.224l0.288,0.279
	c0.113,0.111,0.304,0.244,0.572,0.244c0.267,0,0.458-0.132,0.572-0.242c6.022-5.884,10.106-10.51,10.922-12.37
	c1.368-3.119,0.137-6.842-2.745-8.3c-0.763-0.387-1.572-0.583-2.405-0.583c-1.966,0-3.817,1.12-4.851,2.929l-0.018,0.074
	l-0.102,0.131c-0.303,0.468-0.822,0.756-1.372,0.756c-0.501,0-0.961-0.226-1.272-0.615l-0.097-0.069l-0.09-0.219
	c-1.027-1.843-2.896-2.987-4.884-2.987c-0.833,0-1.642,0.196-2.404,0.582c-2.881,1.458-4.113,5.182-2.746,8.301
	C5.307,15.961,9.272,20.468,15.14,26.224z"/>
</svg>
<svg  x="0" y="420"
	 width="32" height="32" viewBox="0 0 32 32" enable-background="new 0 0 32 32" xml:space="preserve">
<path fill="#00AE66" d="M25.875,4.139c-3.378-1.712-7.37-0.346-9.239,3.035c-0.001,0.002-0.001,0.002-0.002,0.003
	c-0.005,0.011-0.01,0.02-0.017,0.029c-0.001,0.006-0.004,0.01-0.005,0.012c-0.128,0.219-0.354,0.363-0.612,0.363
	c-0.258,0-0.483-0.144-0.611-0.363c-0.002-0.002-0.004-0.006-0.006-0.012c-0.006-0.009-0.012-0.018-0.017-0.029
	c0-0.001,0-0.001-0.001-0.003c-1.867-3.382-5.86-4.748-9.239-3.035c-3.589,1.816-5.129,6.42-3.438,10.279
	c1.335,3.047,8.849,10.578,11.961,13.62h0.003c0.355,0.349,0.828,0.562,1.35,0.562c0.518,0,0.989-0.211,1.346-0.557
	c3.108-3.037,10.63-10.575,11.967-13.625C31.005,10.56,29.466,5.956,25.875,4.139L25.875,4.139z M25.875,4.139"/>
</svg>

</svg>